<svg xmlns="http://www.w3.org/2000/svg" xmlns:xlink="http://www.w3.org/1999/xlink" width="451" zoomAndPan="magnify" viewBox="0 0 338.25 93.749996" height="125" preserveAspectRatio="xMidYMid meet" version="1.0"><defs><g/><clipPath id="8161e62f52"><path d="M 0.0742188 14 L 323 14 L 323 79 L 0.0742188 79 Z M 0.0742188 14 " clip-rule="nonzero"/></clipPath><clipPath id="10d9a6e5f8"><path d="M 0.0742188 13.882812 L 7.355469 13.882812 L 7.355469 51.46875 L 0.0742188 51.46875 Z M 0.0742188 13.882812 " clip-rule="nonzero"/></clipPath><clipPath id="bf13e0260f"><path d="M 0.0742188 0.882812 L 7.355469 0.882812 L 7.355469 38.46875 L 0.0742188 38.46875 Z M 0.0742188 0.882812 " clip-rule="nonzero"/></clipPath><clipPath id="a5230dc7e0"><rect x="0" width="8" y="0" height="39"/></clipPath><clipPath id="3a7a88a4f7"><path d="M 124.367188 13.882812 L 131.648438 13.882812 L 131.648438 51.46875 L 124.367188 51.46875 Z M 124.367188 13.882812 " clip-rule="nonzero"/></clipPath><clipPath id="22bd2de8f7"><path d="M 0.367188 0.882812 L 7.648438 0.882812 L 7.648438 38.46875 L 0.367188 38.46875 Z M 0.367188 0.882812 " clip-rule="nonzero"/></clipPath><clipPath id="dd1c6370d1"><rect x="0" width="8" y="0" height="39"/></clipPath><clipPath id="b8df24afc4"><path d="M 88.488281 13.660156 L 116.277344 13.660156 L 116.277344 51.613281 L 88.488281 51.613281 Z M 88.488281 13.660156 " clip-rule="nonzero"/></clipPath><clipPath id="01f1e1edd0"><path d="M 108.875 13.832031 L 108.875 34.390625 L 95.789062 19.671875 L 90.601562 13.832031 L 90.542969 13.769531 L 88.492188 13.832031 L 88.492188 51.515625 L 95.789062 51.515625 L 95.789062 30.652344 L 114.332031 51.515625 L 116.171875 51.515625 L 116.171875 13.832031 Z M 108.875 13.832031 " clip-rule="nonzero"/></clipPath><clipPath id="c57db1021e"><path d="M 0.488281 0.765625 L 28.277344 0.765625 L 28.277344 38.585938 L 0.488281 38.585938 Z M 0.488281 0.765625 " clip-rule="nonzero"/></clipPath><clipPath id="e8b40e2375"><path d="M 20.875 0.832031 L 20.875 21.390625 L 7.789062 6.671875 L 2.601562 0.832031 L 2.542969 0.769531 L 0.492188 0.832031 L 0.492188 38.515625 L 7.789062 38.515625 L 7.789062 17.652344 L 26.332031 38.515625 L 28.171875 38.515625 L 28.171875 0.832031 Z M 20.875 0.832031 " clip-rule="nonzero"/></clipPath><clipPath id="c23427f612"><rect x="0" width="29" y="0" height="39"/></clipPath><clipPath id="b6f5dd5170"><path d="M 44.265625 13.882812 L 82.511719 13.882812 L 82.511719 51.035156 L 44.265625 51.035156 Z M 44.265625 13.882812 " clip-rule="nonzero"/></clipPath><clipPath id="83f00fdaa2"><path d="M 13.136719 13.777344 L 40.132812 13.777344 L 40.132812 51.53125 L 13.136719 51.53125 Z M 13.136719 13.777344 " clip-rule="nonzero"/></clipPath><clipPath id="d46e513edd"><path d="M 40.066406 49.640625 L 38.035156 42.121094 L 38.035156 42.117188 C 36.3125 43.316406 34.238281 44.019531 32.007812 44.019531 C 26.023438 44.019531 21.171875 38.984375 21.171875 32.777344 C 21.171875 26.566406 26.023438 21.535156 32.007812 21.535156 C 34.238281 21.535156 36.3125 22.234375 38.035156 23.433594 L 40.132812 15.660156 C 37.691406 14.519531 34.964844 13.882812 32.085938 13.882812 C 21.621094 13.882812 13.136719 22.296875 13.136719 32.675781 C 13.136719 43.054688 21.621094 51.46875 32.085938 51.46875 C 34.925781 51.46875 37.617188 50.84375 40.035156 49.734375 Z M 40.066406 49.640625 " clip-rule="nonzero"/></clipPath><clipPath id="ec36be085c"><path d="M 0.136719 0.777344 L 27.132812 0.777344 L 27.132812 38.53125 L 0.136719 38.53125 Z M 0.136719 0.777344 " clip-rule="nonzero"/></clipPath><clipPath id="b0dfafe20a"><path d="M 27.066406 36.640625 L 25.035156 29.121094 L 25.035156 29.117188 C 23.3125 30.316406 21.238281 31.019531 19.007812 31.019531 C 13.023438 31.019531 8.171875 25.984375 8.171875 19.777344 C 8.171875 13.566406 13.023438 8.535156 19.007812 8.535156 C 21.238281 8.535156 23.3125 9.234375 25.035156 10.433594 L 27.132812 2.660156 C 24.691406 1.519531 21.964844 0.882812 19.085938 0.882812 C 8.621094 0.882812 0.136719 9.296875 0.136719 19.675781 C 0.136719 30.054688 8.621094 38.46875 19.085938 38.46875 C 21.925781 38.46875 24.617188 37.84375 27.035156 36.734375 Z M 27.066406 36.640625 " clip-rule="nonzero"/></clipPath><clipPath id="0d9f6dae70"><rect x="0" width="28" y="0" height="39"/></clipPath><clipPath id="1bdea6c7dc"><path d="M 137.714844 13.777344 L 164.925781 13.777344 L 164.925781 51.53125 L 137.714844 51.53125 Z M 137.714844 13.777344 " clip-rule="nonzero"/></clipPath><clipPath id="d82fe619dd"><path d="M 164.753906 49.640625 L 162.71875 42.121094 L 162.71875 42.117188 C 160.996094 43.316406 158.925781 44.019531 156.691406 44.019531 C 150.707031 44.019531 145.855469 38.984375 145.855469 32.777344 C 145.855469 26.566406 150.707031 21.535156 156.691406 21.535156 C 158.925781 21.535156 160.996094 22.234375 162.71875 23.433594 L 164.820312 15.660156 C 162.375 14.519531 159.648438 13.882812 156.773438 13.882812 C 146.304688 13.882812 137.820312 22.296875 137.820312 32.675781 C 137.820312 43.054688 146.304688 51.46875 156.773438 51.46875 C 159.613281 51.46875 162.300781 50.84375 164.71875 49.734375 Z M 164.753906 49.640625 " clip-rule="nonzero"/></clipPath><clipPath id="2d5c7ba8ea"><path d="M 0.714844 0.777344 L 27.925781 0.777344 L 27.925781 38.53125 L 0.714844 38.53125 Z M 0.714844 0.777344 " clip-rule="nonzero"/></clipPath><clipPath id="d6746be452"><path d="M 27.753906 36.640625 L 25.71875 29.121094 L 25.71875 29.117188 C 23.996094 30.316406 21.925781 31.019531 19.691406 31.019531 C 13.707031 31.019531 8.855469 25.984375 8.855469 19.777344 C 8.855469 13.566406 13.707031 8.535156 19.691406 8.535156 C 21.925781 8.535156 23.996094 9.234375 25.71875 10.433594 L 27.820312 2.660156 C 25.375 1.519531 22.648438 0.882812 19.773438 0.882812 C 9.304688 0.882812 0.820312 9.296875 0.820312 19.675781 C 0.820312 30.054688 9.304688 38.46875 19.773438 38.46875 C 22.613281 38.46875 25.300781 37.84375 27.71875 36.734375 Z M 27.753906 36.640625 " clip-rule="nonzero"/></clipPath><clipPath id="494e172a42"><rect x="0" width="28" y="0" height="39"/></clipPath><clipPath id="5d133938d3"><rect x="0" width="323" y="0" height="65"/></clipPath></defs><g clip-path="url(#8161e62f52)"><g transform="matrix(1, 0, 0, 1, 0.000000000000000014, 14)"><g clip-path="url(#5d133938d3)"><g clip-path="url(#10d9a6e5f8)"><g transform="matrix(1, 0, 0, 1, 0.000000000000000014, 13)"><g clip-path="url(#a5230dc7e0)"><g clip-path="url(#bf13e0260f)"><path fill="#ffffff" d="M 0.0742188 0.882812 L 7.355469 0.882812 L 7.355469 38.472656 L 0.0742188 38.472656 Z M 0.0742188 0.882812 " fill-opacity="1" fill-rule="nonzero"/></g></g></g></g><g clip-path="url(#3a7a88a4f7)"><g transform="matrix(1, 0, 0, 1, 124, 13)"><g clip-path="url(#dd1c6370d1)"><g clip-path="url(#22bd2de8f7)"><path fill="#ffffff" d="M 0.367188 0.882812 L 7.648438 0.882812 L 7.648438 38.472656 L 0.367188 38.472656 Z M 0.367188 0.882812 " fill-opacity="1" fill-rule="nonzero"/></g></g></g></g><g clip-path="url(#b8df24afc4)"><g clip-path="url(#01f1e1edd0)"><g transform="matrix(1, 0, 0, 1, 88, 13)"><g clip-path="url(#c23427f612)"><g clip-path="url(#c57db1021e)"><g clip-path="url(#e8b40e2375)"><path fill="#ffffff" d="M 0.488281 0.769531 L 28.171875 0.769531 L 28.171875 38.507812 L 0.488281 38.507812 Z M 0.488281 0.769531 " fill-opacity="1" fill-rule="nonzero"/></g></g></g></g></g></g><g clip-path="url(#b6f5dd5170)"><path fill="#ffffff" d="M 63.105469 43.960938 C 57.132812 43.960938 52.289062 38.9375 52.289062 32.742188 C 52.289062 26.542969 57.132812 21.519531 63.105469 21.519531 C 69.078125 21.519531 73.921875 26.542969 73.921875 32.742188 C 73.921875 38.9375 69.078125 43.960938 63.105469 43.960938 M 63.183594 13.882812 C 52.738281 13.882812 44.265625 22.28125 44.265625 32.640625 C 44.265625 43 52.738281 51.398438 63.183594 51.398438 C 73.632812 51.398438 82.101562 43 82.101562 32.640625 C 82.101562 22.28125 73.632812 13.882812 63.183594 13.882812 " fill-opacity="1" fill-rule="nonzero"/></g><g clip-path="url(#83f00fdaa2)"><g clip-path="url(#d46e513edd)"><g transform="matrix(1, 0, 0, 1, 13, 13)"><g clip-path="url(#0d9f6dae70)"><g clip-path="url(#ec36be085c)"><g clip-path="url(#b0dfafe20a)"><path fill="#ffffff" d="M 0.136719 0.882812 L 27.132812 0.882812 L 27.132812 38.425781 L 0.136719 38.425781 Z M 0.136719 0.882812 " fill-opacity="1" fill-rule="nonzero"/></g></g></g></g></g></g><g clip-path="url(#1bdea6c7dc)"><g clip-path="url(#d82fe619dd)"><g transform="matrix(1, 0, 0, 1, 137, 13)"><g clip-path="url(#494e172a42)"><g clip-path="url(#2d5c7ba8ea)"><g clip-path="url(#d6746be452)"><path fill="#ffffff" d="M 0.820312 0.882812 L 27.820312 0.882812 L 27.820312 38.425781 L 0.820312 38.425781 Z M 0.820312 0.882812 " fill-opacity="1" fill-rule="nonzero"/></g></g></g></g></g></g><g fill="#ffffff" fill-opacity="1"><g transform="translate(169.266954, 50.648617)"><g><path d="M 54.671875 -36.984375 L 42 0 L 40.9375 0 L 28.53125 -35.5 L 16.109375 0 L 15.0625 0 L 2.375 -36.984375 L 3.546875 -36.984375 L 15.640625 -1.6875 L 28 -36.984375 L 29.0625 -36.984375 L 41.46875 -1.578125 L 53.5625 -36.984375 Z M 54.671875 -36.984375 "/></g></g></g><g fill="#ffffff" fill-opacity="1"><g transform="translate(224.453246, 50.648617)"><g><path d="M 29.484375 -11.140625 L 6.875 -11.140625 L 1.6875 0 L 0.46875 0 L 17.640625 -36.984375 L 18.703125 -36.984375 L 35.875 0 L 34.65625 0 Z M 29 -12.15625 L 18.171875 -35.546875 L 7.34375 -12.15625 Z M 29 -12.15625 "/></g></g></g><g fill="#ffffff" fill-opacity="1"><g transform="translate(260.786713, 50.648617)"><g><path d="M 7.03125 -36.984375 L 8.078125 -36.984375 L 8.078125 -1 L 30.109375 -1 L 30.109375 0 L 7.03125 0 Z M 7.03125 -36.984375 "/></g></g></g><g fill="#ffffff" fill-opacity="1"><g transform="translate(291.416675, 50.648617)"><g><path d="M 7.03125 -36.984375 L 8.078125 -36.984375 L 8.078125 -1 L 30.109375 -1 L 30.109375 0 L 7.03125 0 Z M 7.03125 -36.984375 "/></g></g></g></g></g></g></svg>