<svg xmlns="http://www.w3.org/2000/svg" xmlns:xlink="http://www.w3.org/1999/xlink" width="365" zoomAndPan="magnify" viewBox="0 0 273.75 75.749997" height="101" preserveAspectRatio="xMidYMid meet" version="1.0"><defs><g/><clipPath id="e5388ce8ab"><path d="M 0.324219 11 L 261 11 L 261 64 L 0.324219 64 Z M 0.324219 11 " clip-rule="nonzero"/></clipPath><clipPath id="f0f17339f7"><path d="M 0.324219 11.527344 L 6.207031 11.527344 L 6.207031 41.898438 L 0.324219 41.898438 Z M 0.324219 11.527344 " clip-rule="nonzero"/></clipPath><clipPath id="932f2d6005"><path d="M 0.324219 0.527344 L 6.207031 0.527344 L 6.207031 30.898438 L 0.324219 30.898438 Z M 0.324219 0.527344 " clip-rule="nonzero"/></clipPath><clipPath id="4af3deeda6"><rect x="0" width="7" y="0" height="31"/></clipPath><clipPath id="385b8e73a8"><path d="M 100.757812 11.527344 L 106.640625 11.527344 L 106.640625 41.898438 L 100.757812 41.898438 Z M 100.757812 11.527344 " clip-rule="nonzero"/></clipPath><clipPath id="35bb6a7405"><path d="M 0.757812 0.527344 L 6.640625 0.527344 L 6.640625 30.898438 L 0.757812 30.898438 Z M 0.757812 0.527344 " clip-rule="nonzero"/></clipPath><clipPath id="b87cafa723"><rect x="0" width="7" y="0" height="31"/></clipPath><clipPath id="7e5edbcf03"><path d="M 71.765625 11.351562 L 94.222656 11.351562 L 94.222656 42 L 71.765625 42 Z M 71.765625 11.351562 " clip-rule="nonzero"/></clipPath><clipPath id="9580d782af"><path d="M 88.238281 11.492188 L 88.238281 28.101562 L 77.664062 16.207031 L 73.472656 11.492188 L 73.425781 11.4375 L 71.765625 11.492188 L 71.765625 41.9375 L 77.664062 41.9375 L 77.664062 25.082031 L 92.648438 41.9375 L 94.132812 41.9375 L 94.132812 11.492188 Z M 88.238281 11.492188 " clip-rule="nonzero"/></clipPath><clipPath id="01160a6289"><path d="M 0.765625 0.351562 L 23.222656 0.351562 L 23.222656 31 L 0.765625 31 Z M 0.765625 0.351562 " clip-rule="nonzero"/></clipPath><clipPath id="0214f1886d"><path d="M 17.238281 0.492188 L 17.238281 17.101562 L 6.664062 5.207031 L 2.472656 0.492188 L 2.425781 0.4375 L 0.765625 0.492188 L 0.765625 30.9375 L 6.664062 30.9375 L 6.664062 14.082031 L 21.648438 30.9375 L 23.132812 30.9375 L 23.132812 0.492188 Z M 17.238281 0.492188 " clip-rule="nonzero"/></clipPath><clipPath id="8476a26cea"><rect x="0" width="24" y="0" height="31"/></clipPath><clipPath id="2b7752ce4e"><path d="M 36.03125 11.527344 L 66.9375 11.527344 L 66.9375 41.550781 L 36.03125 41.550781 Z M 36.03125 11.527344 " clip-rule="nonzero"/></clipPath><clipPath id="dd0b8a9947"><path d="M 10.878906 11.445312 L 32.695312 11.445312 L 32.695312 41.953125 L 10.878906 41.953125 Z M 10.878906 11.445312 " clip-rule="nonzero"/></clipPath><clipPath id="82297fa7e8"><path d="M 32.640625 40.421875 L 31 34.347656 L 31 34.34375 C 29.605469 35.316406 27.929688 35.882812 26.128906 35.882812 C 21.292969 35.882812 17.371094 31.8125 17.371094 26.796875 C 17.371094 21.78125 21.292969 17.710938 26.128906 17.710938 C 27.929688 17.710938 29.605469 18.28125 31 19.25 L 31 19.246094 L 32.695312 12.964844 C 30.71875 12.046875 28.515625 11.527344 26.191406 11.527344 C 17.734375 11.527344 10.878906 18.328125 10.878906 26.714844 C 10.878906 35.101562 17.734375 41.902344 26.191406 41.902344 C 28.484375 41.902344 30.660156 41.398438 32.613281 40.5 Z M 32.640625 40.421875 " clip-rule="nonzero"/></clipPath><clipPath id="f33f03cb15"><path d="M 0.878906 0.484375 L 22.695312 0.484375 L 22.695312 30.953125 L 0.878906 30.953125 Z M 0.878906 0.484375 " clip-rule="nonzero"/></clipPath><clipPath id="c045518c7c"><path d="M 22.640625 29.421875 L 21 23.347656 L 21 23.34375 C 19.605469 24.316406 17.929688 24.882812 16.128906 24.882812 C 11.292969 24.882812 7.371094 20.8125 7.371094 15.796875 C 7.371094 10.78125 11.292969 6.710938 16.128906 6.710938 C 17.929688 6.710938 19.605469 7.28125 21 8.25 L 21 8.246094 L 22.695312 1.964844 C 20.71875 1.046875 18.515625 0.527344 16.191406 0.527344 C 7.734375 0.527344 0.878906 7.328125 0.878906 15.714844 C 0.878906 24.101562 7.734375 30.902344 16.191406 30.902344 C 18.484375 30.902344 20.660156 30.398438 22.613281 29.5 Z M 22.640625 29.421875 " clip-rule="nonzero"/></clipPath><clipPath id="d8462b26bd"><rect x="0" width="23" y="0" height="31"/></clipPath><clipPath id="32f2f7646a"><path d="M 111.542969 11.445312 L 133.527344 11.445312 L 133.527344 41.953125 L 111.542969 41.953125 Z M 111.542969 11.445312 " clip-rule="nonzero"/></clipPath><clipPath id="5739575f8b"><path d="M 133.390625 40.421875 L 131.746094 34.347656 L 131.746094 34.34375 C 130.355469 35.316406 128.679688 35.882812 126.878906 35.882812 C 122.042969 35.882812 118.121094 31.8125 118.121094 26.796875 C 118.121094 21.78125 122.042969 17.710938 126.878906 17.710938 C 128.679688 17.710938 130.355469 18.28125 131.746094 19.25 L 131.746094 19.246094 L 133.445312 12.964844 C 131.46875 12.046875 129.265625 11.527344 126.941406 11.527344 C 118.484375 11.527344 111.628906 18.328125 111.628906 26.714844 C 111.628906 35.101562 118.484375 41.902344 126.941406 41.902344 C 129.234375 41.902344 131.410156 41.398438 133.363281 40.5 Z M 133.390625 40.421875 " clip-rule="nonzero"/></clipPath><clipPath id="8f180d63a1"><path d="M 0.558594 0.484375 L 22.527344 0.484375 L 22.527344 30.953125 L 0.558594 30.953125 Z M 0.558594 0.484375 " clip-rule="nonzero"/></clipPath><clipPath id="cfd6bf8bcc"><path d="M 22.390625 29.421875 L 20.746094 23.347656 L 20.746094 23.34375 C 19.355469 24.316406 17.679688 24.882812 15.878906 24.882812 C 11.042969 24.882812 7.121094 20.8125 7.121094 15.796875 C 7.121094 10.78125 11.042969 6.710938 15.878906 6.710938 C 17.679688 6.710938 19.355469 7.28125 20.746094 8.25 L 20.746094 8.246094 L 22.445312 1.964844 C 20.46875 1.046875 18.265625 0.527344 15.941406 0.527344 C 7.484375 0.527344 0.628906 7.328125 0.628906 15.714844 C 0.628906 24.101562 7.484375 30.902344 15.941406 30.902344 C 18.234375 30.902344 20.410156 30.398438 22.363281 29.5 Z M 22.390625 29.421875 " clip-rule="nonzero"/></clipPath><clipPath id="5a05e17019"><rect x="0" width="23" y="0" height="31"/></clipPath><clipPath id="e3a04a1abb"><path d="M 241 11 L 260.824219 11 L 260.824219 42 L 241 42 Z M 241 11 " clip-rule="nonzero"/></clipPath><clipPath id="a08a6f1213"><rect x="0" width="261" y="0" height="53"/></clipPath></defs><g clip-path="url(#e5388ce8ab)"><g transform="matrix(1, 0, 0, 1, 0.000000000000000056, 11)"><g clip-path="url(#a08a6f1213)"><g clip-path="url(#f0f17339f7)"><g transform="matrix(1, 0, 0, 1, 0.000000000000000056, 11)"><g clip-path="url(#4af3deeda6)"><g clip-path="url(#932f2d6005)"><path fill="#000000" d="M 0.324219 0.527344 L 6.207031 0.527344 L 6.207031 30.902344 L 0.324219 30.902344 Z M 0.324219 0.527344 " fill-opacity="1" fill-rule="nonzero"/></g></g></g></g><g clip-path="url(#385b8e73a8)"><g transform="matrix(1, 0, 0, 1, 100, 11)"><g clip-path="url(#b87cafa723)"><g clip-path="url(#35bb6a7405)"><path fill="#000000" d="M 0.757812 0.527344 L 6.640625 0.527344 L 6.640625 30.902344 L 0.757812 30.902344 Z M 0.757812 0.527344 " fill-opacity="1" fill-rule="nonzero"/></g></g></g></g><g clip-path="url(#7e5edbcf03)"><g clip-path="url(#9580d782af)"><g transform="matrix(1, 0, 0, 1, 71, 11)"><g clip-path="url(#8476a26cea)"><g clip-path="url(#01160a6289)"><g clip-path="url(#0214f1886d)"><path fill="#000000" d="M 0.765625 0.4375 L 23.132812 0.4375 L 23.132812 30.929688 L 0.765625 30.929688 Z M 0.765625 0.4375 " fill-opacity="1" fill-rule="nonzero"/></g></g></g></g></g></g><g clip-path="url(#2b7752ce4e)"><path fill="#000000" d="M 51.253906 35.835938 C 46.429688 35.835938 42.515625 31.777344 42.515625 26.769531 C 42.515625 21.761719 46.429688 17.699219 51.253906 17.699219 C 56.082031 17.699219 59.996094 21.761719 59.996094 26.769531 C 59.996094 31.777344 56.082031 35.835938 51.253906 35.835938 M 51.320312 11.527344 C 42.878906 11.527344 36.035156 18.316406 36.035156 26.6875 C 36.035156 35.058594 42.878906 41.84375 51.320312 41.84375 C 59.761719 41.84375 66.605469 35.058594 66.605469 26.6875 C 66.605469 18.316406 59.761719 11.527344 51.320312 11.527344 " fill-opacity="1" fill-rule="nonzero"/></g><g clip-path="url(#dd0b8a9947)"><g clip-path="url(#82297fa7e8)"><g transform="matrix(1, 0, 0, 1, 10, 11)"><g clip-path="url(#d8462b26bd)"><g clip-path="url(#f33f03cb15)"><g clip-path="url(#c045518c7c)"><path fill="#000000" d="M 0.878906 0.527344 L 22.695312 0.527344 L 22.695312 30.867188 L 0.878906 30.867188 Z M 0.878906 0.527344 " fill-opacity="1" fill-rule="nonzero"/></g></g></g></g></g></g><g clip-path="url(#32f2f7646a)"><g clip-path="url(#5739575f8b)"><g transform="matrix(1, 0, 0, 1, 111, 11)"><g clip-path="url(#5a05e17019)"><g clip-path="url(#8f180d63a1)"><g clip-path="url(#cfd6bf8bcc)"><path fill="#000000" d="M 0.628906 0.527344 L 22.445312 0.527344 L 22.445312 30.867188 L 0.628906 30.867188 Z M 0.628906 0.527344 " fill-opacity="1" fill-rule="nonzero"/></g></g></g></g></g></g><g fill="#000000" fill-opacity="1"><g transform="translate(137.037652, 41.238199)"><g><path d="M 44.1875 -29.875 L 33.9375 0 L 33.078125 0 L 23.046875 -28.6875 L 13.015625 0 L 12.171875 0 L 1.921875 -29.875 L 2.859375 -29.875 L 12.640625 -1.359375 L 22.625 -29.875 L 23.484375 -29.875 L 33.515625 -1.28125 L 43.28125 -29.875 Z M 44.1875 -29.875 "/></g></g></g><g fill="#000000" fill-opacity="1"><g transform="translate(181.629984, 41.238199)"><g><path d="M 23.8125 -9 L 5.546875 -9 L 1.359375 0 L 0.390625 0 L 14.25 -29.875 L 15.109375 -29.875 L 28.984375 0 L 28 0 Z M 23.4375 -9.8125 L 14.6875 -28.734375 L 5.9375 -9.8125 Z M 23.4375 -9.8125 "/></g></g></g><g fill="#000000" fill-opacity="1"><g transform="translate(210.988616, 41.238199)"><g><path d="M 5.671875 -29.875 L 6.53125 -29.875 L 6.53125 -0.8125 L 24.328125 -0.8125 L 24.328125 0 L 5.671875 0 Z M 5.671875 -29.875 "/></g></g></g><g clip-path="url(#e3a04a1abb)"><g fill="#000000" fill-opacity="1"><g transform="translate(235.738629, 41.238199)"><g><path d="M 5.671875 -29.875 L 6.53125 -29.875 L 6.53125 -0.8125 L 24.328125 -0.8125 L 24.328125 0 L 5.671875 0 Z M 5.671875 -29.875 "/></g></g></g></g></g></g></g></svg>