<svg xmlns="http://www.w3.org/2000/svg" xmlns:xlink="http://www.w3.org/1999/xlink" width="97" zoomAndPan="magnify" viewBox="0 0 72.75 31.5" height="42" preserveAspectRatio="xMidYMid meet" version="1.0"><defs><g/><clipPath id="f24d824c33"><path d="M 1.488281 4.949219 L 4.347656 4.949219 L 4.347656 19.722656 L 1.488281 19.722656 Z M 1.488281 4.949219 " clip-rule="nonzero"/></clipPath><clipPath id="c829d9e59b"><path d="M 0.488281 0.949219 L 3.347656 0.949219 L 3.347656 15.722656 L 0.488281 15.722656 Z M 0.488281 0.949219 " clip-rule="nonzero"/></clipPath><clipPath id="d85cec7e4e"><rect x="0" width="4" y="0" height="16"/></clipPath><clipPath id="c841e51541"><path d="M 50.347656 4.949219 L 53.210938 4.949219 L 53.210938 19.722656 L 50.347656 19.722656 Z M 50.347656 4.949219 " clip-rule="nonzero"/></clipPath><clipPath id="d6a8b2ed17"><path d="M 0.347656 0.949219 L 3.210938 0.949219 L 3.210938 15.722656 L 0.347656 15.722656 Z M 0.347656 0.949219 " clip-rule="nonzero"/></clipPath><clipPath id="d8d5e121da"><rect x="0" width="4" y="0" height="16"/></clipPath><clipPath id="0fdcf1c730"><path d="M 36.246094 4.863281 L 47.167969 4.863281 L 47.167969 19.78125 L 36.246094 19.78125 Z M 36.246094 4.863281 " clip-rule="nonzero"/></clipPath><clipPath id="741d1ecd0f"><path d="M 44.257812 4.929688 L 44.257812 13.011719 L 39.113281 7.222656 L 37.074219 4.929688 L 37.050781 4.90625 L 36.246094 4.929688 L 36.246094 19.742188 L 39.113281 19.742188 L 39.113281 11.542969 L 46.402344 19.742188 L 47.125 19.742188 L 47.125 4.929688 Z M 44.257812 4.929688 " clip-rule="nonzero"/></clipPath><clipPath id="689833f05b"><path d="M 0.246094 0.863281 L 11.167969 0.863281 L 11.167969 15.78125 L 0.246094 15.78125 Z M 0.246094 0.863281 " clip-rule="nonzero"/></clipPath><clipPath id="027a7bb3de"><path d="M 8.257812 0.929688 L 8.257812 9.011719 L 3.113281 3.222656 L 1.074219 0.929688 L 1.050781 0.90625 L 0.246094 0.929688 L 0.246094 15.742188 L 3.113281 15.742188 L 3.113281 7.542969 L 10.402344 15.742188 L 11.125 15.742188 L 11.125 0.929688 Z M 8.257812 0.929688 " clip-rule="nonzero"/></clipPath><clipPath id="60d4b00b1f"><rect x="0" width="12" y="0" height="16"/></clipPath><clipPath id="7e5d126fd5"><path d="M 18.859375 4.949219 L 33.761719 4.949219 L 33.761719 19.71875 L 18.859375 19.71875 Z M 18.859375 4.949219 " clip-rule="nonzero"/></clipPath><clipPath id="e0e623250a"><path d="M 6.621094 4.90625 L 17.234375 4.90625 L 17.234375 19.75 L 6.621094 19.75 Z M 6.621094 4.90625 " clip-rule="nonzero"/></clipPath><clipPath id="7b056d8f35"><path d="M 17.207031 19.003906 L 16.410156 16.050781 L 16.410156 16.046875 C 15.730469 16.519531 14.917969 16.796875 14.039062 16.796875 C 11.6875 16.796875 9.78125 14.816406 9.78125 12.375 C 9.78125 9.933594 11.6875 7.957031 14.039062 7.957031 C 14.917969 7.957031 15.730469 8.230469 16.410156 8.703125 L 17.234375 5.648438 C 16.273438 5.199219 15.203125 4.949219 14.070312 4.949219 C 9.957031 4.949219 6.621094 8.257812 6.621094 12.335938 C 6.621094 16.417969 9.957031 19.722656 14.070312 19.722656 C 15.1875 19.722656 16.246094 19.480469 17.195312 19.042969 Z M 17.207031 19.003906 " clip-rule="nonzero"/></clipPath><clipPath id="4232c6ac0c"><path d="M 0.621094 0.90625 L 11.234375 0.90625 L 11.234375 15.75 L 0.621094 15.75 Z M 0.621094 0.90625 " clip-rule="nonzero"/></clipPath><clipPath id="1799411ba4"><path d="M 11.207031 15.003906 L 10.410156 12.050781 L 10.410156 12.046875 C 9.730469 12.519531 8.917969 12.796875 8.039062 12.796875 C 5.6875 12.796875 3.78125 10.816406 3.78125 8.375 C 3.78125 5.933594 5.6875 3.957031 8.039062 3.957031 C 8.917969 3.957031 9.730469 4.230469 10.410156 4.703125 L 11.234375 1.648438 C 10.273438 1.199219 9.203125 0.949219 8.070312 0.949219 C 3.957031 0.949219 0.621094 4.257812 0.621094 8.335938 C 0.621094 12.417969 3.957031 15.722656 8.070312 15.722656 C 9.1875 15.722656 10.246094 15.480469 11.195312 15.042969 Z M 11.207031 15.003906 " clip-rule="nonzero"/></clipPath><clipPath id="c5330b4ce3"><rect x="0" width="12" y="0" height="16"/></clipPath><clipPath id="58b8116720"><path d="M 55.59375 4.90625 L 66.292969 4.90625 L 66.292969 19.75 L 55.59375 19.75 Z M 55.59375 4.90625 " clip-rule="nonzero"/></clipPath><clipPath id="bc4f78d216"><path d="M 66.222656 19.003906 L 65.425781 16.050781 L 65.425781 16.046875 C 64.75 16.519531 63.933594 16.796875 63.054688 16.796875 C 60.703125 16.796875 58.796875 14.816406 58.796875 12.375 C 58.796875 9.933594 60.703125 7.957031 63.054688 7.957031 C 63.933594 7.957031 64.75 8.230469 65.425781 8.703125 L 66.25 5.648438 C 65.289062 5.199219 64.21875 4.949219 63.085938 4.949219 C 58.972656 4.949219 55.636719 8.257812 55.636719 12.335938 C 55.636719 16.417969 58.972656 19.722656 63.085938 19.722656 C 64.203125 19.722656 65.261719 19.480469 66.210938 19.042969 Z M 66.222656 19.003906 " clip-rule="nonzero"/></clipPath><clipPath id="8808ac1149"><path d="M 0.617188 0.90625 L 11.292969 0.90625 L 11.292969 15.75 L 0.617188 15.75 Z M 0.617188 0.90625 " clip-rule="nonzero"/></clipPath><clipPath id="b02956006a"><path d="M 11.222656 15.003906 L 10.425781 12.050781 L 10.425781 12.046875 C 9.75 12.519531 8.933594 12.796875 8.054688 12.796875 C 5.703125 12.796875 3.796875 10.816406 3.796875 8.375 C 3.796875 5.933594 5.703125 3.957031 8.054688 3.957031 C 8.933594 3.957031 9.75 4.230469 10.425781 4.703125 L 11.25 1.648438 C 10.289062 1.199219 9.21875 0.949219 8.085938 0.949219 C 3.972656 0.949219 0.636719 4.257812 0.636719 8.335938 C 0.636719 12.417969 3.972656 15.722656 8.085938 15.722656 C 9.203125 15.722656 10.261719 15.480469 11.210938 15.042969 Z M 11.222656 15.003906 " clip-rule="nonzero"/></clipPath><clipPath id="1d384d1073"><rect x="0" width="12" y="0" height="16"/></clipPath><clipPath id="72ea0148ca"><path d="M 1 19 L 66.484375 19 L 66.484375 28.113281 L 1 28.113281 Z M 1 19 " clip-rule="nonzero"/></clipPath><clipPath id="b2c8a9515d"><path d="M 0.28125 2 L 5 2 L 5 7 L 0.28125 7 Z M 0.28125 2 " clip-rule="nonzero"/></clipPath><clipPath id="42ff8d71ca"><rect x="0" width="66" y="0" height="10"/></clipPath><clipPath id="f977192e3f"><path d="M 0.570312 0 L 18 0 L 18 2 L 0.570312 2 Z M 0.570312 0 " clip-rule="nonzero"/></clipPath><clipPath id="3ecd07d96a"><rect x="0" width="67" y="0" height="29"/></clipPath></defs><g transform="matrix(1, 0, 0, 1, 2, -0.000000000000002895)"><g clip-path="url(#3ecd07d96a)"><g clip-path="url(#f24d824c33)"><g transform="matrix(1, 0, 0, 1, 1, 4)"><g clip-path="url(#d85cec7e4e)"><g clip-path="url(#c829d9e59b)"><path fill="#ffffff" d="M 0.488281 0.949219 L 3.347656 0.949219 L 3.347656 15.726562 L 0.488281 15.726562 Z M 0.488281 0.949219 " fill-opacity="1" fill-rule="nonzero"/></g></g></g></g><g clip-path="url(#c841e51541)"><g transform="matrix(1, 0, 0, 1, 50, 4)"><g clip-path="url(#d8d5e121da)"><g clip-path="url(#d6a8b2ed17)"><path fill="#ffffff" d="M 0.347656 0.949219 L 3.210938 0.949219 L 3.210938 15.726562 L 0.347656 15.726562 Z M 0.347656 0.949219 " fill-opacity="1" fill-rule="nonzero"/></g></g></g></g><g clip-path="url(#0fdcf1c730)"><g clip-path="url(#741d1ecd0f)"><g transform="matrix(1, 0, 0, 1, 36, 4)"><g clip-path="url(#60d4b00b1f)"><g clip-path="url(#689833f05b)"><g clip-path="url(#027a7bb3de)"><path fill="#ffffff" d="M 0.246094 0.90625 L 11.125 0.90625 L 11.125 15.738281 L 0.246094 15.738281 Z M 0.246094 0.90625 " fill-opacity="1" fill-rule="nonzero"/></g></g></g></g></g></g><g clip-path="url(#7e5d126fd5)"><path fill="#ffffff" d="M 26.265625 16.777344 C 23.917969 16.777344 22.011719 14.800781 22.011719 12.363281 C 22.011719 9.925781 23.917969 7.953125 26.265625 7.953125 C 28.613281 7.953125 30.515625 9.925781 30.515625 12.363281 C 30.515625 14.800781 28.613281 16.777344 26.265625 16.777344 M 26.296875 4.949219 C 22.1875 4.949219 18.859375 8.25 18.859375 12.324219 C 18.859375 16.398438 22.1875 19.699219 26.296875 19.699219 C 30.402344 19.699219 33.734375 16.398438 33.734375 12.324219 C 33.734375 8.25 30.402344 4.949219 26.296875 4.949219 " fill-opacity="1" fill-rule="nonzero"/></g><g clip-path="url(#e0e623250a)"><g clip-path="url(#7b056d8f35)"><g transform="matrix(1, 0, 0, 1, 6, 4)"><g clip-path="url(#c5330b4ce3)"><g clip-path="url(#4232c6ac0c)"><g clip-path="url(#1799411ba4)"><path fill="#ffffff" d="M 0.621094 0.949219 L 11.234375 0.949219 L 11.234375 15.707031 L 0.621094 15.707031 Z M 0.621094 0.949219 " fill-opacity="1" fill-rule="nonzero"/></g></g></g></g></g></g><g clip-path="url(#58b8116720)"><g clip-path="url(#bc4f78d216)"><g transform="matrix(1, 0, 0, 1, 55, 4)"><g clip-path="url(#1d384d1073)"><g clip-path="url(#8808ac1149)"><g clip-path="url(#b02956006a)"><path fill="#ffffff" d="M 0.636719 0.949219 L 11.25 0.949219 L 11.25 15.707031 L 0.636719 15.707031 Z M 0.636719 0.949219 " fill-opacity="1" fill-rule="nonzero"/></g></g></g></g></g></g><g clip-path="url(#72ea0148ca)"><g transform="matrix(1, 0, 0, 1, 1, 19)"><g clip-path="url(#42ff8d71ca)"><g clip-path="url(#b2c8a9515d)"><g fill="#d9d9d9" fill-opacity="1"><g transform="translate(0.48844, 6.929156)"><g><path d="M 2.03125 0.0625 C 1.695312 0.0625 1.398438 -0.00390625 1.140625 -0.140625 C 0.890625 -0.285156 0.691406 -0.488281 0.546875 -0.75 C 0.398438 -1.007812 0.328125 -1.300781 0.328125 -1.625 C 0.328125 -1.96875 0.394531 -2.265625 0.53125 -2.515625 C 0.664062 -2.773438 0.859375 -2.972656 1.109375 -3.109375 C 1.359375 -3.253906 1.648438 -3.328125 1.984375 -3.328125 C 2.273438 -3.328125 2.535156 -3.265625 2.765625 -3.140625 C 3.003906 -3.023438 3.1875 -2.863281 3.3125 -2.65625 L 3.3125 -4.546875 L 3.921875 -4.546875 L 3.921875 0 L 3.3125 0 L 3.3125 -0.59375 C 3.1875 -0.375 3.015625 -0.207031 2.796875 -0.09375 C 2.578125 0.0078125 2.320312 0.0625 2.03125 0.0625 Z M 2.125 -0.203125 C 2.351562 -0.203125 2.554688 -0.257812 2.734375 -0.375 C 2.921875 -0.488281 3.0625 -0.65625 3.15625 -0.875 C 3.257812 -1.09375 3.3125 -1.34375 3.3125 -1.625 C 3.3125 -1.90625 3.257812 -2.15625 3.15625 -2.375 C 3.0625 -2.59375 2.921875 -2.757812 2.734375 -2.875 C 2.554688 -3 2.347656 -3.0625 2.109375 -3.0625 C 1.753906 -3.0625 1.46875 -2.929688 1.25 -2.671875 C 1.039062 -2.421875 0.9375 -2.078125 0.9375 -1.640625 C 0.9375 -1.359375 0.984375 -1.109375 1.078125 -0.890625 C 1.179688 -0.671875 1.320312 -0.5 1.5 -0.375 C 1.675781 -0.257812 1.882812 -0.203125 2.125 -0.203125 Z M 2.125 -0.203125 "/></g></g></g></g><g fill="#d9d9d9" fill-opacity="1"><g transform="translate(4.873445, 6.929156)"><g><path d="M 0.453125 -3.265625 L 1.0625 -3.265625 L 1.0625 -2.5625 C 1.144531 -2.800781 1.273438 -2.988281 1.453125 -3.125 C 1.640625 -3.257812 1.863281 -3.328125 2.125 -3.328125 C 2.226562 -3.328125 2.304688 -3.316406 2.359375 -3.296875 L 2.296875 -2.875 C 2.234375 -2.90625 2.140625 -2.921875 2.015625 -2.921875 C 1.710938 -2.921875 1.476562 -2.796875 1.3125 -2.546875 C 1.144531 -2.296875 1.0625 -1.976562 1.0625 -1.59375 L 1.0625 0 L 0.453125 0 Z M 0.453125 -3.265625 "/></g></g></g><g fill="#d9d9d9" fill-opacity="1"><g transform="translate(7.288856, 6.929156)"><g><path d="M 2.15625 -0.203125 C 2.457031 -0.203125 2.710938 -0.273438 2.921875 -0.421875 C 3.128906 -0.566406 3.265625 -0.769531 3.328125 -1.03125 L 3.828125 -1.03125 C 3.734375 -0.6875 3.535156 -0.414062 3.234375 -0.21875 C 2.929688 -0.03125 2.566406 0.0625 2.140625 0.0625 C 1.773438 0.0625 1.453125 -0.00390625 1.171875 -0.140625 C 0.898438 -0.273438 0.691406 -0.46875 0.546875 -0.71875 C 0.398438 -0.976562 0.328125 -1.28125 0.328125 -1.625 C 0.328125 -1.96875 0.398438 -2.265625 0.546875 -2.515625 C 0.691406 -2.773438 0.898438 -2.972656 1.171875 -3.109375 C 1.441406 -3.253906 1.757812 -3.328125 2.125 -3.328125 C 2.664062 -3.328125 3.085938 -3.179688 3.390625 -2.890625 C 3.691406 -2.597656 3.851562 -2.1875 3.875 -1.65625 L 0.9375 -1.65625 L 0.9375 -1.625 C 0.9375 -1.175781 1.039062 -0.828125 1.25 -0.578125 C 1.46875 -0.328125 1.769531 -0.203125 2.15625 -0.203125 Z M 2.140625 -3.0625 C 1.804688 -3.0625 1.535156 -2.960938 1.328125 -2.765625 C 1.128906 -2.566406 1.003906 -2.285156 0.953125 -1.921875 L 3.28125 -1.921875 C 3.238281 -2.285156 3.117188 -2.566406 2.921875 -2.765625 C 2.722656 -2.960938 2.460938 -3.0625 2.140625 -3.0625 Z M 2.140625 -3.0625 "/></g></g></g><g fill="#d9d9d9" fill-opacity="1"><g transform="translate(11.607324, 6.929156)"><g><path d="M 1.953125 0.0625 C 1.492188 0.0625 1.125 -0.0234375 0.84375 -0.203125 C 0.5625 -0.378906 0.390625 -0.625 0.328125 -0.9375 L 0.84375 -0.9375 C 0.875 -0.707031 0.988281 -0.523438 1.1875 -0.390625 C 1.382812 -0.265625 1.644531 -0.203125 1.96875 -0.203125 C 2.269531 -0.203125 2.515625 -0.265625 2.703125 -0.390625 C 2.890625 -0.515625 2.984375 -0.679688 2.984375 -0.890625 C 2.984375 -1.046875 2.898438 -1.171875 2.734375 -1.265625 C 2.578125 -1.367188 2.3125 -1.453125 1.9375 -1.515625 C 1.570312 -1.578125 1.273438 -1.644531 1.046875 -1.71875 C 0.828125 -1.800781 0.671875 -1.894531 0.578125 -2 C 0.484375 -2.113281 0.4375 -2.253906 0.4375 -2.421875 C 0.4375 -2.703125 0.566406 -2.921875 0.828125 -3.078125 C 1.085938 -3.242188 1.457031 -3.328125 1.9375 -3.328125 C 2.394531 -3.328125 2.765625 -3.238281 3.046875 -3.0625 C 3.335938 -2.882812 3.503906 -2.640625 3.546875 -2.328125 L 3.046875 -2.328125 C 3.003906 -2.554688 2.890625 -2.734375 2.703125 -2.859375 C 2.515625 -2.992188 2.273438 -3.0625 1.984375 -3.0625 C 1.703125 -3.0625 1.472656 -3.007812 1.296875 -2.90625 C 1.128906 -2.800781 1.046875 -2.664062 1.046875 -2.5 C 1.046875 -2.394531 1.070312 -2.3125 1.125 -2.25 C 1.1875 -2.1875 1.289062 -2.128906 1.4375 -2.078125 C 1.59375 -2.035156 1.820312 -1.988281 2.125 -1.9375 C 2.644531 -1.84375 3.019531 -1.71875 3.25 -1.5625 C 3.476562 -1.40625 3.59375 -1.191406 3.59375 -0.921875 C 3.59375 -0.609375 3.445312 -0.363281 3.15625 -0.1875 C 2.863281 -0.0195312 2.460938 0.0625 1.953125 0.0625 Z M 1.953125 0.0625 "/></g></g></g><g fill="#d9d9d9" fill-opacity="1"><g transform="translate(15.5332, 6.929156)"><g><path d="M 1.953125 0.0625 C 1.492188 0.0625 1.125 -0.0234375 0.84375 -0.203125 C 0.5625 -0.378906 0.390625 -0.625 0.328125 -0.9375 L 0.84375 -0.9375 C 0.875 -0.707031 0.988281 -0.523438 1.1875 -0.390625 C 1.382812 -0.265625 1.644531 -0.203125 1.96875 -0.203125 C 2.269531 -0.203125 2.515625 -0.265625 2.703125 -0.390625 C 2.890625 -0.515625 2.984375 -0.679688 2.984375 -0.890625 C 2.984375 -1.046875 2.898438 -1.171875 2.734375 -1.265625 C 2.578125 -1.367188 2.3125 -1.453125 1.9375 -1.515625 C 1.570312 -1.578125 1.273438 -1.644531 1.046875 -1.71875 C 0.828125 -1.800781 0.671875 -1.894531 0.578125 -2 C 0.484375 -2.113281 0.4375 -2.253906 0.4375 -2.421875 C 0.4375 -2.703125 0.566406 -2.921875 0.828125 -3.078125 C 1.085938 -3.242188 1.457031 -3.328125 1.9375 -3.328125 C 2.394531 -3.328125 2.765625 -3.238281 3.046875 -3.0625 C 3.335938 -2.882812 3.503906 -2.640625 3.546875 -2.328125 L 3.046875 -2.328125 C 3.003906 -2.554688 2.890625 -2.734375 2.703125 -2.859375 C 2.515625 -2.992188 2.273438 -3.0625 1.984375 -3.0625 C 1.703125 -3.0625 1.472656 -3.007812 1.296875 -2.90625 C 1.128906 -2.800781 1.046875 -2.664062 1.046875 -2.5 C 1.046875 -2.394531 1.070312 -2.3125 1.125 -2.25 C 1.1875 -2.1875 1.289062 -2.128906 1.4375 -2.078125 C 1.59375 -2.035156 1.820312 -1.988281 2.125 -1.9375 C 2.644531 -1.84375 3.019531 -1.71875 3.25 -1.5625 C 3.476562 -1.40625 3.59375 -1.191406 3.59375 -0.921875 C 3.59375 -0.609375 3.445312 -0.363281 3.15625 -0.1875 C 2.863281 -0.0195312 2.460938 0.0625 1.953125 0.0625 Z M 1.953125 0.0625 "/></g></g></g><g fill="#d9d9d9" fill-opacity="1"><g transform="translate(19.459076, 6.929156)"><g/></g></g><g fill="#d9d9d9" fill-opacity="1"><g transform="translate(21.229047, 6.929156)"><g><path d="M 0.765625 1.28125 C 0.628906 1.28125 0.5 1.257812 0.375 1.21875 C 0.257812 1.1875 0.160156 1.140625 0.078125 1.078125 L 0.265625 0.765625 C 0.316406 0.828125 0.382812 0.878906 0.46875 0.921875 C 0.5625 0.960938 0.648438 0.984375 0.734375 0.984375 C 0.878906 0.984375 1.023438 0.929688 1.171875 0.828125 C 1.328125 0.734375 1.453125 0.609375 1.546875 0.453125 C 1.640625 0.304688 1.6875 0.15625 1.6875 0 C 1.6875 -0.144531 1.648438 -0.28125 1.578125 -0.40625 L 0.046875 -3.265625 L 0.734375 -3.265625 L 2.078125 -0.625 L 3.359375 -3.265625 L 3.734375 -3.265625 L 2.109375 0.09375 C 1.722656 0.882812 1.273438 1.28125 0.765625 1.28125 Z M 0.765625 1.28125 "/></g></g></g><g fill="#d9d9d9" fill-opacity="1"><g transform="translate(25.028496, 6.929156)"><g><path d="M 2.203125 0.0625 C 1.828125 0.0625 1.5 -0.00390625 1.21875 -0.140625 C 0.9375 -0.285156 0.71875 -0.484375 0.5625 -0.734375 C 0.40625 -0.992188 0.328125 -1.289062 0.328125 -1.625 C 0.328125 -1.96875 0.40625 -2.265625 0.5625 -2.515625 C 0.71875 -2.773438 0.9375 -2.972656 1.21875 -3.109375 C 1.5 -3.253906 1.828125 -3.328125 2.203125 -3.328125 C 2.585938 -3.328125 2.921875 -3.253906 3.203125 -3.109375 C 3.492188 -2.972656 3.710938 -2.773438 3.859375 -2.515625 C 4.015625 -2.265625 4.09375 -1.96875 4.09375 -1.625 C 4.09375 -1.289062 4.015625 -0.992188 3.859375 -0.734375 C 3.710938 -0.484375 3.492188 -0.285156 3.203125 -0.140625 C 2.921875 -0.00390625 2.585938 0.0625 2.203125 0.0625 Z M 2.203125 -0.203125 C 2.597656 -0.203125 2.910156 -0.328125 3.140625 -0.578125 C 3.367188 -0.835938 3.484375 -1.1875 3.484375 -1.625 C 3.484375 -2.070312 3.367188 -2.421875 3.140625 -2.671875 C 2.910156 -2.929688 2.597656 -3.0625 2.203125 -3.0625 C 1.816406 -3.0625 1.507812 -2.929688 1.28125 -2.671875 C 1.050781 -2.421875 0.9375 -2.070312 0.9375 -1.625 C 0.9375 -1.1875 1.050781 -0.835938 1.28125 -0.578125 C 1.507812 -0.328125 1.816406 -0.203125 2.203125 -0.203125 Z M 2.203125 -0.203125 "/></g></g></g><g fill="#d9d9d9" fill-opacity="1"><g transform="translate(29.453425, 6.929156)"><g><path d="M 1.78125 0.0625 C 1.34375 0.0625 1 -0.046875 0.75 -0.265625 C 0.507812 -0.492188 0.390625 -0.804688 0.390625 -1.203125 L 0.390625 -3.265625 L 1 -3.265625 L 1 -1.125 C 1 -0.832031 1.078125 -0.601562 1.234375 -0.4375 C 1.390625 -0.28125 1.613281 -0.203125 1.90625 -0.203125 C 2.25 -0.203125 2.519531 -0.3125 2.71875 -0.53125 C 2.925781 -0.75 3.03125 -1.039062 3.03125 -1.40625 L 3.03125 -3.265625 L 3.640625 -3.265625 L 3.640625 0 L 3.03125 0 L 3.03125 -0.578125 C 2.925781 -0.367188 2.757812 -0.207031 2.53125 -0.09375 C 2.3125 0.0078125 2.0625 0.0625 1.78125 0.0625 Z M 1.78125 0.0625 "/></g></g></g><g fill="#d9d9d9" fill-opacity="1"><g transform="translate(33.55896, 6.929156)"><g><path d="M 0.453125 -3.265625 L 1.0625 -3.265625 L 1.0625 -2.5625 C 1.144531 -2.800781 1.273438 -2.988281 1.453125 -3.125 C 1.640625 -3.257812 1.863281 -3.328125 2.125 -3.328125 C 2.226562 -3.328125 2.304688 -3.316406 2.359375 -3.296875 L 2.296875 -2.875 C 2.234375 -2.90625 2.140625 -2.921875 2.015625 -2.921875 C 1.710938 -2.921875 1.476562 -2.796875 1.3125 -2.546875 C 1.144531 -2.296875 1.0625 -1.976562 1.0625 -1.59375 L 1.0625 0 L 0.453125 0 Z M 0.453125 -3.265625 "/></g></g></g><g fill="#d9d9d9" fill-opacity="1"><g transform="translate(35.974371, 6.929156)"><g/></g></g><g fill="#d9d9d9" fill-opacity="1"><g transform="translate(37.744341, 6.929156)"><g><path d="M 0.921875 -3.671875 C 0.785156 -3.671875 0.675781 -3.707031 0.59375 -3.78125 C 0.507812 -3.851562 0.46875 -3.953125 0.46875 -4.078125 C 0.46875 -4.203125 0.507812 -4.300781 0.59375 -4.375 C 0.675781 -4.457031 0.785156 -4.5 0.921875 -4.5 C 1.054688 -4.5 1.164062 -4.457031 1.25 -4.375 C 1.332031 -4.300781 1.375 -4.203125 1.375 -4.078125 C 1.375 -3.953125 1.332031 -3.851562 1.25 -3.78125 C 1.164062 -3.707031 1.054688 -3.671875 0.921875 -3.671875 Z M 0.609375 -3.265625 L 1.21875 -3.265625 L 1.21875 0 L 0.609375 0 Z M 0.609375 -3.265625 "/></g></g></g><g fill="#d9d9d9" fill-opacity="1"><g transform="translate(39.580855, 6.929156)"><g><path d="M 0.46875 -3.265625 L 1.078125 -3.265625 L 1.078125 -2.6875 C 1.179688 -2.882812 1.34375 -3.039062 1.5625 -3.15625 C 1.789062 -3.269531 2.046875 -3.328125 2.328125 -3.328125 C 2.753906 -3.328125 3.09375 -3.210938 3.34375 -2.984375 C 3.59375 -2.765625 3.71875 -2.460938 3.71875 -2.078125 L 3.71875 0 L 3.109375 0 L 3.109375 -2.15625 C 3.109375 -2.4375 3.023438 -2.65625 2.859375 -2.8125 C 2.703125 -2.976562 2.476562 -3.0625 2.1875 -3.0625 C 1.851562 -3.0625 1.582031 -2.945312 1.375 -2.71875 C 1.175781 -2.5 1.078125 -2.210938 1.078125 -1.859375 L 1.078125 0 L 0.46875 0 Z M 0.46875 -3.265625 "/></g></g></g><g fill="#d9d9d9" fill-opacity="1"><g transform="translate(43.699698, 6.929156)"><g><path d="M 1.53125 0.0625 C 1.238281 0.0625 1.019531 -0.015625 0.875 -0.171875 C 0.738281 -0.328125 0.671875 -0.570312 0.671875 -0.90625 L 0.671875 -2.984375 L 0.09375 -2.984375 L 0.1875 -3.265625 L 0.671875 -3.265625 L 0.921875 -4.1875 L 1.28125 -4.1875 L 1.28125 -3.265625 L 2.203125 -3.265625 L 2.109375 -2.984375 L 1.28125 -2.984375 L 1.28125 -0.8125 C 1.28125 -0.414062 1.429688 -0.21875 1.734375 -0.21875 C 1.898438 -0.21875 2.054688 -0.257812 2.203125 -0.34375 L 2.203125 -0.046875 C 2.015625 0.0234375 1.789062 0.0625 1.53125 0.0625 Z M 1.53125 0.0625 "/></g></g></g><g fill="#d9d9d9" fill-opacity="1"><g transform="translate(46.075184, 6.929156)"><g><path d="M 2.15625 -0.203125 C 2.457031 -0.203125 2.710938 -0.273438 2.921875 -0.421875 C 3.128906 -0.566406 3.265625 -0.769531 3.328125 -1.03125 L 3.828125 -1.03125 C 3.734375 -0.6875 3.535156 -0.414062 3.234375 -0.21875 C 2.929688 -0.03125 2.566406 0.0625 2.140625 0.0625 C 1.773438 0.0625 1.453125 -0.00390625 1.171875 -0.140625 C 0.898438 -0.273438 0.691406 -0.46875 0.546875 -0.71875 C 0.398438 -0.976562 0.328125 -1.28125 0.328125 -1.625 C 0.328125 -1.96875 0.398438 -2.265625 0.546875 -2.515625 C 0.691406 -2.773438 0.898438 -2.972656 1.171875 -3.109375 C 1.441406 -3.253906 1.757812 -3.328125 2.125 -3.328125 C 2.664062 -3.328125 3.085938 -3.179688 3.390625 -2.890625 C 3.691406 -2.597656 3.851562 -2.1875 3.875 -1.65625 L 0.9375 -1.65625 L 0.9375 -1.625 C 0.9375 -1.175781 1.039062 -0.828125 1.25 -0.578125 C 1.46875 -0.328125 1.769531 -0.203125 2.15625 -0.203125 Z M 2.140625 -3.0625 C 1.804688 -3.0625 1.535156 -2.960938 1.328125 -2.765625 C 1.128906 -2.566406 1.003906 -2.285156 0.953125 -1.921875 L 3.28125 -1.921875 C 3.238281 -2.285156 3.117188 -2.566406 2.921875 -2.765625 C 2.722656 -2.960938 2.460938 -3.0625 2.140625 -3.0625 Z M 2.140625 -3.0625 "/></g></g></g><g fill="#d9d9d9" fill-opacity="1"><g transform="translate(50.260565, 6.929156)"><g><path d="M 0.453125 -3.265625 L 1.0625 -3.265625 L 1.0625 -2.5625 C 1.144531 -2.800781 1.273438 -2.988281 1.453125 -3.125 C 1.640625 -3.257812 1.863281 -3.328125 2.125 -3.328125 C 2.226562 -3.328125 2.304688 -3.316406 2.359375 -3.296875 L 2.296875 -2.875 C 2.234375 -2.90625 2.140625 -2.921875 2.015625 -2.921875 C 1.710938 -2.921875 1.476562 -2.796875 1.3125 -2.546875 C 1.144531 -2.296875 1.0625 -1.976562 1.0625 -1.59375 L 1.0625 0 L 0.453125 0 Z M 0.453125 -3.265625 "/></g></g></g><g fill="#d9d9d9" fill-opacity="1"><g transform="translate(52.675977, 6.929156)"><g><path d="M 0.921875 -3.671875 C 0.785156 -3.671875 0.675781 -3.707031 0.59375 -3.78125 C 0.507812 -3.851562 0.46875 -3.953125 0.46875 -4.078125 C 0.46875 -4.203125 0.507812 -4.300781 0.59375 -4.375 C 0.675781 -4.457031 0.785156 -4.5 0.921875 -4.5 C 1.054688 -4.5 1.164062 -4.457031 1.25 -4.375 C 1.332031 -4.300781 1.375 -4.203125 1.375 -4.078125 C 1.375 -3.953125 1.332031 -3.851562 1.25 -3.78125 C 1.164062 -3.707031 1.054688 -3.671875 0.921875 -3.671875 Z M 0.609375 -3.265625 L 1.21875 -3.265625 L 1.21875 0 L 0.609375 0 Z M 0.609375 -3.265625 "/></g></g></g><g fill="#d9d9d9" fill-opacity="1"><g transform="translate(54.512491, 6.929156)"><g><path d="M 2.203125 0.0625 C 1.828125 0.0625 1.5 -0.00390625 1.21875 -0.140625 C 0.9375 -0.285156 0.71875 -0.484375 0.5625 -0.734375 C 0.40625 -0.992188 0.328125 -1.289062 0.328125 -1.625 C 0.328125 -1.96875 0.40625 -2.265625 0.5625 -2.515625 C 0.71875 -2.773438 0.9375 -2.972656 1.21875 -3.109375 C 1.5 -3.253906 1.828125 -3.328125 2.203125 -3.328125 C 2.585938 -3.328125 2.921875 -3.253906 3.203125 -3.109375 C 3.492188 -2.972656 3.710938 -2.773438 3.859375 -2.515625 C 4.015625 -2.265625 4.09375 -1.96875 4.09375 -1.625 C 4.09375 -1.289062 4.015625 -0.992188 3.859375 -0.734375 C 3.710938 -0.484375 3.492188 -0.285156 3.203125 -0.140625 C 2.921875 -0.00390625 2.585938 0.0625 2.203125 0.0625 Z M 2.203125 -0.203125 C 2.597656 -0.203125 2.910156 -0.328125 3.140625 -0.578125 C 3.367188 -0.835938 3.484375 -1.1875 3.484375 -1.625 C 3.484375 -2.070312 3.367188 -2.421875 3.140625 -2.671875 C 2.910156 -2.929688 2.597656 -3.0625 2.203125 -3.0625 C 1.816406 -3.0625 1.507812 -2.929688 1.28125 -2.671875 C 1.050781 -2.421875 0.9375 -2.070312 0.9375 -1.625 C 0.9375 -1.1875 1.050781 -0.835938 1.28125 -0.578125 C 1.507812 -0.328125 1.816406 -0.203125 2.203125 -0.203125 Z M 2.203125 -0.203125 "/></g></g></g><g fill="#d9d9d9" fill-opacity="1"><g transform="translate(58.937416, 6.929156)"><g><path d="M 0.453125 -3.265625 L 1.0625 -3.265625 L 1.0625 -2.5625 C 1.144531 -2.800781 1.273438 -2.988281 1.453125 -3.125 C 1.640625 -3.257812 1.863281 -3.328125 2.125 -3.328125 C 2.226562 -3.328125 2.304688 -3.316406 2.359375 -3.296875 L 2.296875 -2.875 C 2.234375 -2.90625 2.140625 -2.921875 2.015625 -2.921875 C 1.710938 -2.921875 1.476562 -2.796875 1.3125 -2.546875 C 1.144531 -2.296875 1.0625 -1.976562 1.0625 -1.59375 L 1.0625 0 L 0.453125 0 Z M 0.453125 -3.265625 "/></g></g></g><g fill="#d9d9d9" fill-opacity="1"><g transform="translate(61.352828, 6.929156)"><g><path d="M 1.953125 0.0625 C 1.492188 0.0625 1.125 -0.0234375 0.84375 -0.203125 C 0.5625 -0.378906 0.390625 -0.625 0.328125 -0.9375 L 0.84375 -0.9375 C 0.875 -0.707031 0.988281 -0.523438 1.1875 -0.390625 C 1.382812 -0.265625 1.644531 -0.203125 1.96875 -0.203125 C 2.269531 -0.203125 2.515625 -0.265625 2.703125 -0.390625 C 2.890625 -0.515625 2.984375 -0.679688 2.984375 -0.890625 C 2.984375 -1.046875 2.898438 -1.171875 2.734375 -1.265625 C 2.578125 -1.367188 2.3125 -1.453125 1.9375 -1.515625 C 1.570312 -1.578125 1.273438 -1.644531 1.046875 -1.71875 C 0.828125 -1.800781 0.671875 -1.894531 0.578125 -2 C 0.484375 -2.113281 0.4375 -2.253906 0.4375 -2.421875 C 0.4375 -2.703125 0.566406 -2.921875 0.828125 -3.078125 C 1.085938 -3.242188 1.457031 -3.328125 1.9375 -3.328125 C 2.394531 -3.328125 2.765625 -3.238281 3.046875 -3.0625 C 3.335938 -2.882812 3.503906 -2.640625 3.546875 -2.328125 L 3.046875 -2.328125 C 3.003906 -2.554688 2.890625 -2.734375 2.703125 -2.859375 C 2.515625 -2.992188 2.273438 -3.0625 1.984375 -3.0625 C 1.703125 -3.0625 1.472656 -3.007812 1.296875 -2.90625 C 1.128906 -2.800781 1.046875 -2.664062 1.046875 -2.5 C 1.046875 -2.394531 1.070312 -2.3125 1.125 -2.25 C 1.1875 -2.1875 1.289062 -2.128906 1.4375 -2.078125 C 1.59375 -2.035156 1.820312 -1.988281 2.125 -1.9375 C 2.644531 -1.84375 3.019531 -1.71875 3.25 -1.5625 C 3.476562 -1.40625 3.59375 -1.191406 3.59375 -0.921875 C 3.59375 -0.609375 3.445312 -0.363281 3.15625 -0.1875 C 2.863281 -0.0195312 2.460938 0.0625 1.953125 0.0625 Z M 1.953125 0.0625 "/></g></g></g></g></g></g><g clip-path="url(#f977192e3f)"><path stroke-linecap="butt" transform="matrix(0.0650746, 0, 0, 0.0650746, 1.486594, 0.000000984375)" fill="none" stroke-linejoin="miter" d="M 0.0259241 13.02591 L 234.852743 13.02591 " stroke="#ffffff" stroke-width="26" stroke-opacity="1" stroke-miterlimit="4"/></g></g></g></svg>